<mxfile host="app.diagrams.net" modified="2023-11-23T16:07:19.133Z" agent="Mozilla/5.0 (Windows NT 10.0; Win64; x64) AppleWebKit/537.36 (KHTML, like Gecko) Chrome/116.0.5845.664 YaBrowser/23.9.5.664 Yowser/2.5 Safari/537.36" etag="38Pdf5Cp0otHzoLRdfzH" version="22.1.3" type="device">
  <diagram name="Страница — 1" id="0Hg9JdnEb_OBUSHEmZGM">
    <mxGraphModel dx="878" dy="547" grid="0" gridSize="10" guides="1" tooltips="1" connect="1" arrows="1" fold="1" page="1" pageScale="1" pageWidth="827" pageHeight="1169" math="0" shadow="0">
      <root>
        <mxCell id="0" />
        <mxCell id="1" parent="0" />
        <mxCell id="vSdlGgXXjVl9V2SeEeya-1" value="" style="rounded=0;whiteSpace=wrap;html=1;" parent="1" vertex="1">
          <mxGeometry x="81" y="136" width="602" height="425" as="geometry" />
        </mxCell>
        <mxCell id="n4AyjgU9SirsRX-FSnZF-4" value="" style="rounded=0;whiteSpace=wrap;html=1;" parent="1" vertex="1">
          <mxGeometry x="124" y="296" width="525" height="242" as="geometry" />
        </mxCell>
        <mxCell id="vSdlGgXXjVl9V2SeEeya-2" value="Minikube" style="text;html=1;strokeColor=none;fillColor=none;align=center;verticalAlign=middle;whiteSpace=wrap;rounded=0;" parent="1" vertex="1">
          <mxGeometry x="615" y="140" width="60" height="30" as="geometry" />
        </mxCell>
        <mxCell id="vSdlGgXXjVl9V2SeEeya-3" value="" style="rounded=0;whiteSpace=wrap;html=1;" parent="1" vertex="1">
          <mxGeometry x="170" y="355" width="160" height="140" as="geometry" />
        </mxCell>
        <mxCell id="vSdlGgXXjVl9V2SeEeya-4" value="Pod" style="text;html=1;strokeColor=none;fillColor=none;align=center;verticalAlign=middle;whiteSpace=wrap;rounded=0;" parent="1" vertex="1">
          <mxGeometry x="220" y="357" width="60" height="30" as="geometry" />
        </mxCell>
        <mxCell id="vSdlGgXXjVl9V2SeEeya-5" value="" style="rounded=0;whiteSpace=wrap;html=1;" parent="1" vertex="1">
          <mxGeometry x="200" y="387" width="100" height="90" as="geometry" />
        </mxCell>
        <mxCell id="vSdlGgXXjVl9V2SeEeya-6" value="Container" style="text;html=1;strokeColor=none;fillColor=none;align=center;verticalAlign=middle;whiteSpace=wrap;rounded=0;" parent="1" vertex="1">
          <mxGeometry x="220" y="417" width="60" height="30" as="geometry" />
        </mxCell>
        <mxCell id="vSdlGgXXjVl9V2SeEeya-7" value="" style="rounded=0;whiteSpace=wrap;html=1;" parent="1" vertex="1">
          <mxGeometry x="283" y="233" width="90" height="40" as="geometry" />
        </mxCell>
        <mxCell id="vSdlGgXXjVl9V2SeEeya-9" value="Service" style="text;html=1;strokeColor=none;fillColor=none;align=center;verticalAlign=middle;whiteSpace=wrap;rounded=0;" parent="1" vertex="1">
          <mxGeometry x="298" y="238" width="60" height="30" as="geometry" />
        </mxCell>
        <mxCell id="vSdlGgXXjVl9V2SeEeya-10" value="" style="endArrow=none;html=1;rounded=0;endFill=0;" parent="1" edge="1">
          <mxGeometry width="50" height="50" relative="1" as="geometry">
            <mxPoint x="327" y="40" as="sourcePoint" />
            <mxPoint x="325" y="147" as="targetPoint" />
          </mxGeometry>
        </mxCell>
        <mxCell id="n4AyjgU9SirsRX-FSnZF-8" value="ReplicaSet" style="text;html=1;strokeColor=none;fillColor=none;align=center;verticalAlign=middle;whiteSpace=wrap;rounded=0;" parent="1" vertex="1">
          <mxGeometry x="566" y="301" width="60" height="30" as="geometry" />
        </mxCell>
        <mxCell id="n4AyjgU9SirsRX-FSnZF-9" value="" style="rounded=0;whiteSpace=wrap;html=1;" parent="1" vertex="1">
          <mxGeometry x="392" y="355" width="160" height="140" as="geometry" />
        </mxCell>
        <mxCell id="n4AyjgU9SirsRX-FSnZF-10" value="" style="rounded=0;whiteSpace=wrap;html=1;" parent="1" vertex="1">
          <mxGeometry x="418" y="385" width="100" height="90" as="geometry" />
        </mxCell>
        <mxCell id="n4AyjgU9SirsRX-FSnZF-11" value="Container" style="text;html=1;strokeColor=none;fillColor=none;align=center;verticalAlign=middle;whiteSpace=wrap;rounded=0;" parent="1" vertex="1">
          <mxGeometry x="438" y="415" width="60" height="30" as="geometry" />
        </mxCell>
        <mxCell id="n4AyjgU9SirsRX-FSnZF-12" value="Pod" style="text;html=1;strokeColor=none;fillColor=none;align=center;verticalAlign=middle;whiteSpace=wrap;rounded=0;" parent="1" vertex="1">
          <mxGeometry x="442" y="357" width="60" height="30" as="geometry" />
        </mxCell>
        <mxCell id="tojs1yxZOvhxcuwdjAfg-3" style="edgeStyle=orthogonalEdgeStyle;rounded=0;orthogonalLoop=1;jettySize=auto;html=1;exitX=0.5;exitY=1;exitDx=0;exitDy=0;entryX=0.5;entryY=0;entryDx=0;entryDy=0;endArrow=none;endFill=0;" edge="1" parent="1" source="tojs1yxZOvhxcuwdjAfg-2" target="vSdlGgXXjVl9V2SeEeya-7">
          <mxGeometry relative="1" as="geometry" />
        </mxCell>
        <mxCell id="tojs1yxZOvhxcuwdjAfg-2" value="Ingress" style="rounded=0;whiteSpace=wrap;html=1;" vertex="1" parent="1">
          <mxGeometry x="283" y="153" width="90" height="40" as="geometry" />
        </mxCell>
        <mxCell id="tojs1yxZOvhxcuwdjAfg-5" style="edgeStyle=orthogonalEdgeStyle;rounded=0;orthogonalLoop=1;jettySize=auto;html=1;exitX=0;exitY=0.5;exitDx=0;exitDy=0;entryX=1;entryY=0.5;entryDx=0;entryDy=0;endArrow=none;endFill=0;" edge="1" parent="1" source="tojs1yxZOvhxcuwdjAfg-4" target="tojs1yxZOvhxcuwdjAfg-2">
          <mxGeometry relative="1" as="geometry" />
        </mxCell>
        <mxCell id="tojs1yxZOvhxcuwdjAfg-4" value="Secret tls" style="rounded=0;whiteSpace=wrap;html=1;" vertex="1" parent="1">
          <mxGeometry x="449" y="153" width="90" height="40" as="geometry" />
        </mxCell>
        <mxCell id="tojs1yxZOvhxcuwdjAfg-6" value="Configmap" style="rounded=0;whiteSpace=wrap;html=1;" vertex="1" parent="1">
          <mxGeometry x="452" y="233" width="90" height="40" as="geometry" />
        </mxCell>
        <mxCell id="tojs1yxZOvhxcuwdjAfg-7" style="edgeStyle=orthogonalEdgeStyle;rounded=0;orthogonalLoop=1;jettySize=auto;html=1;exitX=0.5;exitY=1;exitDx=0;exitDy=0;entryX=0.712;entryY=0;entryDx=0;entryDy=0;entryPerimeter=0;endArrow=none;endFill=0;" edge="1" parent="1" source="tojs1yxZOvhxcuwdjAfg-6" target="n4AyjgU9SirsRX-FSnZF-4">
          <mxGeometry relative="1" as="geometry" />
        </mxCell>
        <mxCell id="tojs1yxZOvhxcuwdjAfg-11" value="" style="endArrow=none;html=1;rounded=0;entryX=0.5;entryY=1;entryDx=0;entryDy=0;" edge="1" parent="1" target="vSdlGgXXjVl9V2SeEeya-7">
          <mxGeometry width="50" height="50" relative="1" as="geometry">
            <mxPoint x="251" y="354" as="sourcePoint" />
            <mxPoint x="409" y="319" as="targetPoint" />
          </mxGeometry>
        </mxCell>
        <mxCell id="tojs1yxZOvhxcuwdjAfg-12" value="" style="endArrow=none;html=1;rounded=0;entryX=0.5;entryY=1;entryDx=0;entryDy=0;exitX=0.59;exitY=-0.002;exitDx=0;exitDy=0;exitPerimeter=0;" edge="1" parent="1" source="n4AyjgU9SirsRX-FSnZF-9" target="vSdlGgXXjVl9V2SeEeya-7">
          <mxGeometry width="50" height="50" relative="1" as="geometry">
            <mxPoint x="285" y="369" as="sourcePoint" />
            <mxPoint x="335" y="319" as="targetPoint" />
          </mxGeometry>
        </mxCell>
      </root>
    </mxGraphModel>
  </diagram>
</mxfile>
